<svg id="visual" viewBox="0 0 900 600" width="900" height="600" xmlns="http://www.w3.org/2000/svg" xmlns:xlink="http://www.w3.org/1999/xlink" version="1.1"><rect x="0" y="0" width="900" height="600" fill="#001220"></rect><defs><linearGradient id="grad1_0" x1="33.3%" y1="0%" x2="100%" y2="100%"><stop offset="20%" stop-color="#f7770f" stop-opacity="1"></stop><stop offset="80%" stop-color="#f7770f" stop-opacity="1"></stop></linearGradient></defs><defs><linearGradient id="grad1_1" x1="33.3%" y1="0%" x2="100%" y2="100%"><stop offset="20%" stop-color="#f7770f" stop-opacity="1"></stop><stop offset="80%" stop-color="#872f6b" stop-opacity="1"></stop></linearGradient></defs><defs><linearGradient id="grad1_2" x1="33.3%" y1="0%" x2="100%" y2="100%"><stop offset="20%" stop-color="#001220" stop-opacity="1"></stop><stop offset="80%" stop-color="#872f6b" stop-opacity="1"></stop></linearGradient></defs><defs><linearGradient id="grad2_0" x1="0%" y1="0%" x2="66.7%" y2="100%"><stop offset="20%" stop-color="#f7770f" stop-opacity="1"></stop><stop offset="80%" stop-color="#f7770f" stop-opacity="1"></stop></linearGradient></defs><defs><linearGradient id="grad2_1" x1="0%" y1="0%" x2="66.7%" y2="100%"><stop offset="20%" stop-color="#872f6b" stop-opacity="1"></stop><stop offset="80%" stop-color="#f7770f" stop-opacity="1"></stop></linearGradient></defs><defs><linearGradient id="grad2_2" x1="0%" y1="0%" x2="66.7%" y2="100%"><stop offset="20%" stop-color="#872f6b" stop-opacity="1"></stop><stop offset="80%" stop-color="#001220" stop-opacity="1"></stop></linearGradient></defs><g transform="translate(900, 0)"><path d="M0 243.4C-43.8 237.7 -87.5 232 -121.7 210.8C-155.9 189.5 -180.5 152.7 -199.2 115C-217.9 77.3 -230.6 38.6 -243.4 0L0 0Z" fill="#312954"></path><path d="M0 162.2C-29.2 158.5 -58.3 154.7 -81.1 140.5C-103.9 126.4 -120.3 101.8 -132.8 76.7C-145.2 51.5 -153.7 25.8 -162.2 0L0 0Z" fill="#d53a55"></path><path d="M0 81.1C-14.6 79.2 -29.2 77.3 -40.6 70.3C-52 63.2 -60.2 50.9 -66.4 38.3C-72.6 25.8 -76.9 12.9 -81.1 0L0 0Z" fill="#f7770f"></path></g><g transform="translate(0, 600)"><path d="M0 -243.4C43.5 -237.6 87 -231.7 121.7 -210.8C156.3 -189.8 182.1 -153.7 200.9 -116C219.7 -78.3 231.5 -39.2 243.4 0L0 0Z" fill="#312954"></path><path d="M0 -162.2C29 -158.4 58 -154.5 81.1 -140.5C104.2 -126.5 121.4 -102.4 133.9 -77.3C146.5 -52.2 154.4 -26.1 162.2 0L0 0Z" fill="#d53a55"></path><path d="M0 -81.1C14.5 -79.2 29 -77.2 40.6 -70.3C52.1 -63.3 60.7 -51.2 67 -38.7C73.2 -26.1 77.2 -13.1 81.1 0L0 0Z" fill="#f7770f"></path></g></svg>