<svg id="visual" viewBox="0 0 450 900" width="450" height="900" xmlns="http://www.w3.org/2000/svg" xmlns:xlink="http://www.w3.org/1999/xlink" version="1.1"><rect x="0" y="0" width="450" height="900" fill="#001220"></rect><defs><linearGradient id="grad1_0" x1="0%" y1="0%" x2="100%" y2="100%"><stop offset="30%" stop-color="#f7770f" stop-opacity="1"></stop><stop offset="70%" stop-color="#f7770f" stop-opacity="1"></stop></linearGradient></defs><defs><linearGradient id="grad1_1" x1="0%" y1="0%" x2="100%" y2="100%"><stop offset="30%" stop-color="#f7770f" stop-opacity="1"></stop><stop offset="70%" stop-color="#872f6b" stop-opacity="1"></stop></linearGradient></defs><defs><linearGradient id="grad1_2" x1="0%" y1="0%" x2="100%" y2="100%"><stop offset="30%" stop-color="#001220" stop-opacity="1"></stop><stop offset="70%" stop-color="#872f6b" stop-opacity="1"></stop></linearGradient></defs><defs><linearGradient id="grad2_0" x1="0%" y1="0%" x2="100%" y2="100%"><stop offset="30%" stop-color="#f7770f" stop-opacity="1"></stop><stop offset="70%" stop-color="#f7770f" stop-opacity="1"></stop></linearGradient></defs><defs><linearGradient id="grad2_1" x1="0%" y1="0%" x2="100%" y2="100%"><stop offset="30%" stop-color="#872f6b" stop-opacity="1"></stop><stop offset="70%" stop-color="#f7770f" stop-opacity="1"></stop></linearGradient></defs><defs><linearGradient id="grad2_2" x1="0%" y1="0%" x2="100%" y2="100%"><stop offset="30%" stop-color="#872f6b" stop-opacity="1"></stop><stop offset="70%" stop-color="#001220" stop-opacity="1"></stop></linearGradient></defs><g transform="translate(450, 0)"><path d="M0 202.5C-35.6 197.3 -71.3 192.2 -101.2 175.4C-131.2 158.6 -155.5 130.2 -171.5 99C-187.4 67.8 -195 33.9 -202.5 0L0 0Z" fill="#312954"></path><path d="M0 135C-23.8 131.6 -47.5 128.1 -67.5 116.9C-87.5 105.7 -103.7 86.8 -114.3 66C-124.9 45.2 -130 22.6 -135 0L0 0Z" fill="#d53a55"></path><path d="M0 67.5C-11.9 65.8 -23.8 64.1 -33.7 58.5C-43.7 52.9 -51.8 43.4 -57.2 33C-62.5 22.6 -65 11.3 -67.5 0L0 0Z" fill="#f7770f"></path></g><g transform="translate(0, 900)"><path d="M0 -202.5C36.3 -197.7 72.7 -193 101.2 -175.4C129.8 -157.8 150.7 -127.4 166.3 -96C181.9 -64.6 192.2 -32.3 202.5 0L0 0Z" fill="#312954"></path><path d="M0 -135C24.2 -131.8 48.4 -128.6 67.5 -116.9C86.6 -105.2 100.5 -84.9 110.9 -64C121.2 -43.1 128.1 -21.5 135 0L0 0Z" fill="#d53a55"></path><path d="M0 -67.5C12.1 -65.9 24.2 -64.3 33.7 -58.5C43.3 -52.6 50.2 -42.5 55.4 -32C60.6 -21.5 64.1 -10.8 67.5 0L0 0Z" fill="#f7770f"></path></g></svg>