<svg id="visual" viewBox="0 0 768 900" width="768" height="900" xmlns="http://www.w3.org/2000/svg" xmlns:xlink="http://www.w3.org/1999/xlink" version="1.1"><rect x="0" y="0" width="768" height="900" fill="#001220"></rect><defs><linearGradient id="grad1_0" x1="0%" y1="0%" x2="100%" y2="100%"><stop offset="30%" stop-color="#f7770f" stop-opacity="1"></stop><stop offset="70%" stop-color="#f7770f" stop-opacity="1"></stop></linearGradient></defs><defs><linearGradient id="grad1_1" x1="0%" y1="0%" x2="100%" y2="100%"><stop offset="30%" stop-color="#f7770f" stop-opacity="1"></stop><stop offset="70%" stop-color="#872f6b" stop-opacity="1"></stop></linearGradient></defs><defs><linearGradient id="grad1_2" x1="0%" y1="0%" x2="100%" y2="100%"><stop offset="30%" stop-color="#001220" stop-opacity="1"></stop><stop offset="70%" stop-color="#872f6b" stop-opacity="1"></stop></linearGradient></defs><defs><linearGradient id="grad2_0" x1="0%" y1="0%" x2="100%" y2="100%"><stop offset="30%" stop-color="#f7770f" stop-opacity="1"></stop><stop offset="70%" stop-color="#f7770f" stop-opacity="1"></stop></linearGradient></defs><defs><linearGradient id="grad2_1" x1="0%" y1="0%" x2="100%" y2="100%"><stop offset="30%" stop-color="#872f6b" stop-opacity="1"></stop><stop offset="70%" stop-color="#f7770f" stop-opacity="1"></stop></linearGradient></defs><defs><linearGradient id="grad2_2" x1="0%" y1="0%" x2="100%" y2="100%"><stop offset="30%" stop-color="#872f6b" stop-opacity="1"></stop><stop offset="70%" stop-color="#001220" stop-opacity="1"></stop></linearGradient></defs><g transform="translate(768, 0)"><path d="M0 295.8C-50.8 287 -101.6 278.2 -147 254.6C-192.4 231.1 -232.3 192.8 -256.2 147.9C-280 103 -287.9 51.5 -295.8 0L0 0Z" fill="#312954"></path><path d="M0 197.2C-33.9 191.3 -67.8 185.4 -98 169.7C-128.2 154 -154.8 128.5 -170.8 98.6C-186.7 68.7 -191.9 34.3 -197.2 0L0 0Z" fill="#d53a55"></path><path d="M0 98.6C-16.9 95.7 -33.9 92.7 -49 84.9C-64.1 77 -77.4 64.3 -85.4 49.3C-93.3 34.3 -96 17.2 -98.6 0L0 0Z" fill="#f7770f"></path></g><g transform="translate(0, 900)"><path d="M0 -295.8C51.5 -287.9 103 -280 147.9 -256.2C192.8 -232.3 231.1 -192.4 254.6 -147C278.2 -101.6 287 -50.8 295.8 0L0 0Z" fill="#312954"></path><path d="M0 -197.2C34.3 -191.9 68.7 -186.7 98.6 -170.8C128.5 -154.8 154 -128.2 169.7 -98C185.4 -67.8 191.3 -33.9 197.2 0L0 0Z" fill="#d53a55"></path><path d="M0 -98.6C17.2 -96 34.3 -93.3 49.3 -85.4C64.3 -77.4 77 -64.1 84.9 -49C92.7 -33.9 95.7 -16.9 98.6 0L0 0Z" fill="#f7770f"></path></g></svg>